<?xml version="1.0" encoding="UTF-8"?>
<svg width="34px" height="54px" viewBox="0 0 34 54" version="1.1" xmlns="http://www.w3.org/2000/svg" xmlns:xlink="http://www.w3.org/1999/xlink">
    <title>metal</title>
    <g id="Page-1" stroke="none" stroke-width="1" fill="none" fill-rule="evenodd">
        <g id="sprite" transform="translate(-473.039388, -275.000000)" fill="#000000" fill-rule="nonzero">
            <g id="metal" transform="translate(473.239388, 275.300000)">
                <path d="M0.8,30.9 C0.4,30.9 6.66133815e-16,30.6 6.66133815e-16,30.1 L6.66133815e-16,11.1 C6.66133815e-16,8.5 2.1,6.5 4.6,6.5 C7.1,6.5 9.2,8.6 9.2,11.1 L9.2,28.3 C9.2,28.7 8.9,29.1 8.4,29.1 C7.9,29.1 7.8,28.7 7.8,28.3 L7.8,11.1 C7.8,9.4 6.3,8 4.7,8 C3,8 1.6,9.4 1.6,11.1 L1.6,30.1 C1.6,30.5 1.2,30.9 0.8,30.9 Z" id="Path"></path>
                <path d="M32.2,24.3 C31.8,24.3 31.4,24 31.4,23.5 L31.4,4.5 C31.4,2.8 30,1.4 28.2,1.4 C26.4,1.4 25,2.8 25,4.5 L25,21.7 C25,22.1 24.7,22.5 24.2,22.5 C23.7,22.5 23.4,22.2 23.4,21.7 L23.4,4.6 C23.4,2 25.5,0 28.1,0 C30.7,0 32.8,2.1 32.8,4.6 L32.8,23.6 C33,24 32.6,24.3 32.2,24.3 Z" id="Path"></path>
                <path d="M12.6,32.5 C10,32.5 8,30.8 8,28.7 L8,20.2 C8,18.1 10.1,16.3 12.6,16.3 C15.2,16.3 17.3,18 17.3,20.2 L17.3,22 C17.3,22.4 17,22.8 16.5,22.8 C16,22.8 15.8,22.3 15.8,21.9 L15.8,20.1 C15.8,18.8 14.3,17.7 12.6,17.7 C10.9,17.7 9.5,18.8 9.5,20.1 L9.5,28.6 C9.5,29.9 10.9,30.9 12.6,30.9 C13.8,30.9 14.9,30.2 15.4,29.6 C15.7,29.3 16.1,29.2 16.5,29.5 C16.8,29.8 16.9,30.2 16.6,30.6 C15.7,31.7 14.1,32.5 12.6,32.5 Z" id="Path"></path>
                <path d="M16.6,22.6 C16.2,22.6 15.8,22.3 15.8,21.8 L15.8,20 C15.8,17.9 17.9,16.2 20.5,16.2 C23.1,16.2 25.1,17.9 25.1,20 C25.1,20.4 24.8,20.8 24.3,20.8 C23.8,20.8 23.5,20.5 23.5,20 C23.5,18.7 22,17.7 20.4,17.7 C18.7,17.7 17.2,18.8 17.2,20 L17.2,21.8 C17.3,22.2 17,22.6 16.6,22.6 Z" id="Path"></path>
                <path d="M16.8,53.5 C7.6,53.5 0,46 0,36.7 L0,21.7 C0,21.3 0.3,20.9 0.8,20.9 C1.3,20.9 1.6,21.2 1.6,21.7 L1.6,36.7 C1.6,45.1 8.4,51.9 16.8,51.9 C24.9,51.9 31.6,45.3 31.6,37.1 L31.6,21.8 C31.6,21.4 31.9,21 32.4,21 C32.9,21 33.2,21.3 33.2,21.8 L33.2,37.3 C33,46.3 25.8,53.5 16.8,53.5 Z" id="Path"></path>
                <path d="M14.8,42.9 C14.4,42.9 14,42.6 14,42.1 L14,39 C14,35.5 16,32.5 19,30.8 L18.2,30.8 C13.9,30.8 10.4,27.7 10.4,23.8 C10.4,22.4 11.6,21.3 13.2,21.3 L28.2,21.3 C30.8,21.3 33,23.3 33,25.6 L33,30.1 C33,30.5 32.7,30.9 32.2,30.9 C31.7,30.9 31.4,30.6 31.4,30.1 L31.4,25.6 C31.4,24 29.9,22.8 28.2,22.8 L13.2,22.8 C12.5,22.8 12,23.3 12,23.8 C12,26.9 14.7,29.3 18.2,29.3 L24.8,29.3 C25.2,29.3 25.6,29.6 25.6,30.1 C25.6,30.6 25.2,30.7 24.8,30.7 C19.7,30.7 15.6,34.4 15.6,38.9 L15.6,42 C15.6,42.5 15.2,42.9 14.8,42.9 Z" id="Path"></path>
            </g>
        </g>
    </g>
</svg>