<?xml version="1.0" encoding="UTF-8"?>
<svg width="84px" height="127px" viewBox="0 0 84 127" version="1.1" xmlns="http://www.w3.org/2000/svg" xmlns:xlink="http://www.w3.org/1999/xlink">
    <title>play-icon-6</title>
    <g id="Page-1" stroke="none" stroke-width="1" fill="none" fill-rule="evenodd">
        <g id="sprite" transform="translate(-316.039388, -788.000000)" fill="#FF5050" fill-rule="nonzero">
            <g id="play-icon-6" transform="translate(317.020006, 788.981509)">
                <path d="M81.9193815,111.118491 L68.1193815,60.5184911 L75.3193815,16.7184911 C75.3193815,16.4184911 75.3193815,16.1184911 75.1193815,15.9184911 C74.9193815,15.7184911 74.7193815,15.5184911 74.4193815,15.5184911 C74.2193815,15.5184911 70.3193815,15.1184911 68.9193815,15.1184911 C64.9193815,14.9184911 61.6193815,18.4184911 60.8193815,21.9184911 L57.0193815,37.8184911 L48.0193815,0.818491124 C47.9193815,0.418491124 47.6193815,0.118491124 47.2193815,0.0184911243 C47.0193815,0.0184911243 42.9193815,-0.481508876 38.8193815,3.71849112 C37.0193815,5.51849112 35.3193815,8.41849112 36.4193815,15.7184911 L39.0193815,30.7184911 L20.1193815,3.71849112 C19.9193815,3.31849112 19.4193815,3.21849112 19.0193815,3.31849112 C16.1193815,4.21849112 11.0193815,7.71849112 13.0193815,14.5184911 C13.9193815,17.6184911 15.5193815,20.6184911 18.4193815,25.9184911 C20.1193815,29.0184911 24.5193815,38.1184911 26.0193815,41.2184911 L5.71938148,50.2184911 C5.41938148,50.3184911 5.21938148,50.6184911 5.11938148,50.9184911 L0.0193814796,72.3184911 C-0.0806185204,72.8184911 0.21938148,73.3184911 0.61938148,73.5184911 C0.71938148,73.5184911 2.21938148,74.1184911 4.41938148,74.1184911 C3.01938148,74.7184911 1.51938148,75.7184911 0.31938148,77.1184911 C0.0193814796,77.5184911 0.0193814796,78.1184911 0.31938148,78.4184911 L9.51938148,88.4184911 L14.5193815,94.0184911 C14.6193815,94.1184911 14.7193815,94.2184911 14.8193815,94.2184911 L28.4193815,100.918491 C29.8193815,102.518491 40.6193815,114.818491 49.8193815,117.118491 L52.4193815,122.818491 C53.2193815,124.518491 54.8193815,125.518491 56.6193815,125.518491 C57.2193815,125.518491 57.8193815,125.418491 58.3193815,125.218491 L79.1193815,116.718491 C81.4193815,115.718491 82.6193815,113.318491 81.9193815,111.118491 Z M71.6193815,26.6184911 L68.9193815,26.2184911 L69.1193815,23.1184911 C69.7193815,19.6184911 72.0193815,18.8184911 73.0193815,18.6184911 L71.6193815,26.6184911 Z M48.3193815,10.7184911 L45.4193815,11.1184911 L44.3193815,5.91849112 C44.1193815,3.41849112 45.8193815,2.91849112 46.4193815,2.81849112 L48.3193815,10.7184911 Z M24.3193815,13.2184911 L21.6193815,14.9184911 C20.9193815,14.3184911 19.6193815,12.8184911 18.8193815,10.1184911 C18.0193815,7.51849112 18.8193815,6.51849112 19.3193815,6.11849112 L24.3193815,13.2184911 Z M2.51938148,70.4184911 L4.21938148,63.4184911 L6.21938148,63.9184911 C6.01938148,65.3184911 5.31938148,68.3184911 2.51938148,70.4184911 Z M3.21938148,78.4184911 C4.11938148,78.0184911 6.01938148,77.3184911 8.21938148,78.9184911 L10.7193815,81.2184911 L10.7193815,81.2184911 L8.31938148,83.9184911 L3.21938148,78.4184911 Z M78.5193815,114.718491 L57.7193815,123.218491 C56.4193815,123.718491 54.9193815,123.118491 54.4193815,121.918491 L51.6193815,115.718491 C51.5193815,115.418491 51.2193815,115.218491 50.9193815,115.118491 C41.9193815,113.218491 30.1193815,99.5184911 30.0193815,99.3184911 C29.9193815,99.2184911 29.8193815,99.1184911 29.7193815,99.1184911 L16.0193815,92.4184911 L11.1193815,87.0184911 L9.61938148,85.4184911 L12.8193815,81.8184911 C13.1193815,81.4184911 13.1193815,80.8184911 12.8193815,80.4184911 L9.51938148,77.4184911 L9.41938148,77.3184911 C7.91938148,76.2184911 6.41938148,75.9184911 5.11938148,75.9184911 C8.01938148,74.6184911 11.2193815,75.0184911 12.3193815,75.2184911 C18.2193815,76.3184911 20.4193815,80.8184911 20.5193815,81.0184911 C20.7193815,81.3184911 21.0193815,81.6184911 21.4193815,81.6184911 L32.0193815,82.0184911 C32.4193815,82.0184911 32.7193815,81.8184911 32.9193815,81.5184911 L37.8193815,72.7184911 C38.0193815,72.4184911 38.0193815,72.0184911 37.8193815,71.6184911 L28.6193815,58.2184911 C28.3193815,57.8184911 27.7193815,57.6184911 27.2193815,57.9184911 C23.4193815,60.3184911 17.9193815,60.0184911 16.1193815,59.9184911 C15.4193815,59.9184911 15.1193815,59.8184911 14.7193815,60.1184911 C14.5193815,60.3184911 14.4193815,60.5184911 14.4193815,60.8184911 C14.1193815,66.4184911 10.4193815,69.8184911 10.4193815,69.8184911 C8.01938148,71.7184911 5.61938148,72.1184911 3.81938148,72.0184911 C8.21938148,68.6184911 8.31938148,63.4184911 8.31938148,63.1184911 C8.31938148,62.6184911 8.01938148,62.2184911 7.51938148,62.1184911 L4.71938148,61.4184911 L7.01938148,52.0184911 L27.3193815,43.0184911 L47.9193815,59.0184911 C48.3193815,59.4184911 50.8193815,62.4184911 50.8193815,65.8184911 C50.8193815,66.4184911 51.2193815,66.8184911 51.8193815,66.8184911 C52.4193815,66.8184911 52.8193815,66.4184911 52.8193815,65.8184911 C52.8193815,61.3184911 49.5193815,57.7184911 49.3193815,57.6184911 L49.2193815,57.5184911 L28.1193815,41.0184911 L28.1193815,41.0184911 C26.9193815,38.6184911 22.1193815,28.5184911 20.2193815,25.1184911 C17.3193815,19.9184911 15.8193815,17.0184911 15.0193815,14.1184911 C14.0193815,10.6184911 15.2193815,8.41849112 16.7193815,7.11849112 C16.5193815,8.11849112 16.5193815,9.21849112 17.0193815,10.7184911 C18.4193815,15.3184911 21.0193815,17.0184911 21.1193815,17.0184911 C21.3193815,17.1184911 21.4193815,17.2184911 21.6193815,17.2184911 C21.8193815,17.2184911 22.0193815,17.1184911 22.1193815,17.0184911 L25.5193815,14.9184911 L39.9193815,35.4184911 L39.9193815,35.5184911 C40.0193815,35.8184911 40.2193815,36.1184911 40.4193815,36.2184911 L52.8193815,53.9184911 C53.0193815,54.2184911 53.3193815,54.3184911 53.6193815,54.3184911 C53.8193815,54.3184911 54.0193815,54.2184911 54.2193815,54.1184911 C54.7193815,53.8184911 54.8193815,53.2184911 54.4193815,52.7184911 L41.7193815,34.6184911 L38.4193815,15.4184911 C37.4193815,9.01849112 38.8193815,6.61849112 40.2193815,5.11849112 C41.2193815,4.11849112 42.1193815,3.41849112 43.0193815,2.91849112 C42.5193815,3.71849112 42.2193815,4.71849112 42.3193815,6.11849112 L42.3193815,6.21849112 L43.6193815,12.4184911 C43.7193815,12.9184911 44.1193815,13.2184911 44.6193815,13.2184911 C44.7193815,13.2184911 44.7193815,13.2184911 44.8193815,13.2184911 L48.8193815,12.6184911 L59.3193815,55.8184911 C59.4193815,56.3184911 59.8193815,56.6184911 60.3193815,56.6184911 C60.4193815,56.6184911 60.5193815,56.6184911 60.5193815,56.6184911 C61.0193815,56.5184911 61.4193815,55.9184911 61.2193815,55.4184911 L58.0193815,42.0184911 L62.7193815,22.3184911 C63.3193815,19.6184911 65.7193815,16.9184911 68.7193815,17.0184911 C69.1193815,17.0184911 69.9193815,17.1184911 70.7193815,17.1184911 C69.1193815,17.9184911 67.5193815,19.6184911 67.0193815,22.7184911 L67.0193815,22.8184911 L66.8193815,27.0184911 C66.8193815,27.5184911 67.1193815,28.0184911 67.7193815,28.0184911 L71.3193815,28.5184911 L66.1193815,60.3184911 C66.1193815,60.4184911 66.1193815,60.6184911 66.1193815,60.7184911 L80.0193815,111.618491 C80.4193815,112.918491 79.7193815,114.218491 78.5193815,114.718491 Z M9.11938148,73.0184911 C10.0193815,72.6184911 10.9193815,72.1184911 11.7193815,71.4184911 C11.9193815,71.2184911 15.6193815,67.8184911 16.3193815,61.9184911 C18.4193815,62.0184911 23.4193815,62.2184911 27.4193815,60.1184911 L35.8193815,72.3184911 L31.5193815,80.0184911 L22.0193815,79.6184911 C21.1193815,78.1184911 18.4193815,74.3184911 12.7193815,73.3184911 C12.0193815,73.1184911 10.7193815,72.9184911 9.11938148,73.0184911 Z" id="Shape"></path>
            </g>
        </g>
    </g>
</svg>